<?xml version="1.0" standalone="no"?>
<!DOCTYPE svg PUBLIC "-//W3C//DTD SVG 20010904//EN"
 "http://www.w3.org/TR/2001/REC-SVG-20010904/DTD/svg10.dtd">
<svg version="1.0" xmlns="http://www.w3.org/2000/svg"
 width="16.000000pt" height="16.000000pt" viewBox="0 0 16.000000 16.000000"
 preserveAspectRatio="xMidYMid meet">
<metadata>
Created by potrace 1.11, written by Peter Selinger 2001-2013
</metadata>
<g transform="translate(0.000000,16.000000) scale(0.001233,-0.001233)"
fill="#000000" stroke="none">
<path d="M4935 12768 c-82 -115 -156 -216 -162 -223 -7 -8 -13 -18 -13 -23 0
-6 -4 -12 -8 -14 -5 -1 -24 -25 -43 -52 -54 -77 -336 -470 -483 -671 -69 -95
-257 -358 -278 -388 -7 -10 -21 -28 -30 -40 -9 -12 -107 -148 -218 -302 -110
-154 -216 -301 -235 -327 -86 -118 -110 -150 -194 -268 -49 -69 -101 -141
-115 -160 -14 -19 -100 -138 -190 -265 -91 -126 -169 -234 -174 -240 -4 -5
-23 -32 -42 -60 -19 -27 -37 -52 -40 -55 -3 -3 -64 -86 -135 -185 -108 -151
-233 -325 -435 -605 -19 -26 -67 -92 -106 -147 -39 -54 -129 -179 -200 -278
-72 -99 -224 -310 -338 -470 -115 -159 -225 -312 -246 -340 -20 -27 -171 -237
-335 -465 -164 -228 -319 -443 -344 -477 -122 -166 -113 -147 -106 -216 3 -34
8 -73 10 -87 2 -14 6 -50 10 -80 3 -30 8 -72 10 -92 3 -21 7 -55 10 -75 2 -21
7 -60 10 -88 3 -27 7 -68 10 -90 2 -22 7 -62 10 -90 3 -27 7 -66 10 -85 2 -19
7 -60 10 -90 4 -30 8 -66 10 -80 2 -14 6 -50 10 -80 3 -30 8 -71 10 -90 3 -19
7 -60 10 -90 3 -30 8 -66 10 -80 2 -14 6 -52 10 -85 3 -33 8 -78 11 -100 8
-65 13 -106 19 -165 6 -55 11 -95 20 -167 2 -21 7 -60 10 -88 14 -126 34 -308
40 -350 9 -71 15 -123 20 -170 3 -27 7 -66 10 -85 2 -19 7 -55 9 -80 3 -25 10
-85 16 -135 6 -49 13 -112 16 -140 3 -27 8 -70 11 -95 3 -25 9 -69 12 -99 l6
-54 120 -83 c66 -45 190 -130 275 -189 85 -58 205 -140 265 -182 61 -42 166
-114 235 -161 69 -47 134 -93 146 -104 11 -10 23 -18 27 -18 4 0 44 -26 89
-58 46 -32 126 -88 178 -124 89 -61 1059 -728 1255 -863 50 -34 173 -119 275
-189 147 -101 191 -136 215 -174 16 -26 33 -48 37 -50 5 -2 8 -8 8 -14 0 -5
10 -24 23 -41 12 -18 27 -39 32 -49 6 -9 36 -55 68 -102 31 -47 83 -125 114
-173 32 -49 62 -93 68 -99 6 -6 51 -17 100 -24 50 -7 97 -14 105 -15 8 -2 51
-8 95 -15 78 -11 107 -15 163 -24 15 -3 47 -8 72 -11 56 -8 98 -14 130 -20 14
-2 45 -7 70 -10 25 -3 70 -10 100 -15 56 -9 128 -20 165 -25 34 -5 179 -26
205 -31 14 -2 45 -6 70 -10 25 -3 52 -7 60 -9 8 -2 38 -7 65 -11 28 -3 59 -8
70 -10 11 -2 40 -7 65 -10 25 -3 52 -8 61 -9 9 -2 40 -6 69 -10 29 -4 62 -9
74 -11 12 -2 71 -12 131 -20 61 -9 119 -18 130 -19 59 -10 356 -54 390 -59 23
-4 52 -9 65 -11 14 -3 41 -7 60 -9 19 -2 82 -12 140 -21 58 -9 119 -18 135
-20 17 -2 73 -10 125 -18 52 -9 118 -19 145 -22 57 -8 74 -10 130 -19 22 -4
55 -9 74 -12 19 -2 46 -6 60 -9 14 -2 89 -14 166 -25 77 -12 154 -23 170 -26
17 -3 75 -12 130 -19 55 -8 109 -16 120 -19 11 -2 43 -7 70 -10 28 -4 66 -10
85 -12 19 -3 46 -7 59 -9 13 -2 45 -7 70 -11 25 -4 55 -8 66 -10 11 -2 40 -7
65 -9 25 -3 52 -8 60 -10 8 -2 38 -7 65 -10 28 -3 75 -10 105 -15 30 -5 72
-11 93 -14 20 -4 54 -8 75 -12 20 -3 62 -9 92 -14 30 -5 71 -12 90 -14 19 -3
69 -9 110 -15 41 -6 91 -13 110 -16 20 -3 47 -8 60 -10 14 -3 48 -8 75 -11 28
-4 55 -8 60 -11 23 -10 -41 38 -181 137 -139 99 -175 132 -596 554 l-449 450
53 12 c60 14 280 62 318 69 28 5 112 22 150 31 44 9 63 13 185 38 111 24 176
38 374 80 41 9 76 18 77 19 3 4 100 169 225 382 67 116 159 273 204 350 45 77
109 185 141 240 33 55 63 107 67 115 4 8 16 29 26 45 17 28 82 138 261 445
177 303 346 591 440 750 57 96 111 189 120 205 43 74 124 213 141 240 10 17
24 41 31 55 7 14 32 55 55 93 24 37 43 69 43 71 0 3 40 71 88 153 49 82 106
179 128 217 21 37 46 80 55 94 9 15 65 110 124 212 60 102 160 274 224 383 64
109 124 212 135 230 10 18 39 68 65 112 26 44 79 134 118 200 39 66 129 221
202 344 l131 224 -46 81 c-25 45 -57 99 -70 122 -12 22 -56 97 -97 165 -40 68
-90 153 -111 189 -20 36 -41 72 -46 80 -13 21 -80 136 -190 325 -155 267 -261
448 -286 487 -13 21 -24 40 -24 43 0 3 -12 24 -27 48 -15 23 -31 51 -37 62
-12 21 -251 429 -267 455 -13 21 -196 335 -227 390 -14 25 -42 72 -62 105 -20
33 -39 67 -43 75 -4 8 -17 31 -28 50 -70 116 -309 524 -379 645 -50 88 -168
289 -205 350 -23 39 -45 77 -48 85 -4 8 -15 27 -25 42 -9 15 -45 75 -80 135
-34 59 -67 115 -72 123 -5 8 -55 94 -111 190 -56 96 -122 208 -145 248 -24 40
-44 75 -44 78 0 3 -13 25 -30 49 -16 24 -30 46 -30 49 0 2 -56 100 -125 217
-69 117 -125 214 -125 216 0 2 -10 18 -22 36 -13 18 -24 33 -25 35 -1 4 -55
-21 -223 -101 -63 -30 -153 -73 -200 -95 -47 -22 -139 -66 -205 -97 -66 -32
-147 -70 -180 -85 -73 -34 -237 -111 -365 -172 -52 -25 -129 -62 -170 -81 -41
-19 -138 -65 -215 -102 -77 -37 -160 -76 -185 -87 -40 -18 -179 -84 -380 -181
-36 -17 -67 -32 -70 -32 -3 -1 -59 -27 -125 -59 -66 -32 -138 -66 -161 -76
l-40 -18 -395 259 c-217 143 -401 262 -409 266 -8 3 -31 18 -50 33 -19 15 -39
29 -45 31 -5 2 -48 29 -95 60 -47 31 -155 102 -240 157 -85 56 -184 121 -220
146 l-65 44 -22 83 c-25 96 -223 885 -229 912 -2 9 -6 27 -9 38 -2 12 -9 36
-14 53 -6 17 -12 42 -15 56 -8 43 -73 291 -77 294 -2 2 -71 -91 -154 -206z"/>
</g>
</svg>
